<svg width="200" height="200" viewBox="0 0 200 200" fill="none" xmlns="http://www.w3.org/2000/svg">
<path d="M110.28 0C121.53 0.0299993 127.239 0.0899979 132.169 0.229995L134.109 0.299993C136.349 0.379991 138.559 0.479988 141.229 0.599985C151.868 1.09997 159.128 2.77994 165.497 5.24988C172.097 7.78982 177.657 11.2297 183.216 16.7796C188.301 21.7785 192.235 27.8252 194.746 34.4992C197.216 40.869 198.896 48.1289 199.396 58.7786C199.516 61.4386 199.616 63.6485 199.696 65.8985L199.756 67.8384C199.906 72.7583 199.966 78.4682 199.986 89.7179L199.996 97.1777V110.277C200.02 117.571 199.943 124.865 199.766 132.157L199.706 134.097C199.626 136.347 199.526 138.557 199.406 141.217C198.906 151.866 197.206 159.116 194.746 165.496C192.243 172.174 188.307 178.222 183.216 183.216C178.216 188.299 172.17 192.233 165.497 194.745C159.128 197.215 151.868 198.895 141.229 199.395C138.856 199.507 136.483 199.607 134.109 199.695L132.169 199.755C127.239 199.895 121.53 199.965 110.28 199.985L102.82 199.995H89.7312C82.4342 200.02 75.1372 199.944 67.8423 199.765L65.9024 199.705C63.5286 199.615 61.1554 199.512 58.7828 199.395C48.1433 198.895 40.8837 197.215 34.504 194.745C27.831 192.239 21.7868 188.304 16.7949 183.216C11.7056 178.219 7.76761 172.172 5.2555 165.496C2.78563 159.126 1.10571 151.866 0.605738 141.217C0.494332 138.844 0.394337 136.471 0.305754 134.097L0.255758 132.157C0.0714878 124.865 -0.0118502 117.571 0.00576971 110.277V89.7179C-0.0221385 82.4241 0.0511989 75.1302 0.225759 67.8384L0.295755 65.8985C0.375751 63.6485 0.475746 61.4386 0.59574 58.7786C1.09571 48.1289 2.77563 40.879 5.2455 34.4992C7.75651 27.8184 11.7024 21.7697 16.8049 16.7796C21.7956 11.6945 27.8358 7.75969 34.504 5.24988C40.8837 2.77994 48.1333 1.09997 58.7828 0.599985C61.4426 0.479988 63.6625 0.379991 65.9024 0.299993L67.8423 0.239994C75.1338 0.0623256 82.4275 -0.0143466 89.7212 0.00999904L110.28 0ZM100.001 49.9988C86.7405 49.9988 74.0235 55.2666 64.6471 64.6432C55.2708 74.0198 50.0032 86.7371 50.0032 99.9977C50.0032 113.258 55.2708 125.976 64.6471 135.352C74.0235 144.729 86.7405 149.996 100.001 149.996C113.261 149.996 125.978 144.729 135.354 135.352C144.731 125.976 149.998 113.258 149.998 99.9977C149.998 86.7371 144.731 74.0198 135.354 64.6432C125.978 55.2666 113.261 49.9988 100.001 49.9988ZM100.001 69.9984C103.94 69.9977 107.841 70.773 111.481 72.28C115.121 73.787 118.428 75.9962 121.214 78.7814C124 81.5667 126.211 84.8734 127.719 88.5128C129.227 92.1522 130.003 96.0531 130.004 99.9927C130.005 103.932 129.229 107.833 127.723 111.473C126.216 115.113 124.006 118.421 121.221 121.207C118.436 123.993 115.13 126.203 111.49 127.711C107.851 129.22 103.95 129.996 100.011 129.997C92.0546 129.997 84.4243 126.836 78.7985 121.21C73.1727 115.584 70.0122 107.954 70.0122 99.9977C70.0122 92.0414 73.1727 84.4109 78.7985 78.785C84.4243 73.159 92.0546 69.9984 100.011 69.9984M152.508 34.9992C149.193 34.9992 146.014 36.3161 143.67 38.6603C141.325 41.0044 140.009 44.1838 140.009 47.4989C140.009 50.814 141.325 53.9934 143.67 56.3375C146.014 58.6817 149.193 59.9986 152.508 59.9986C155.823 59.9986 159.002 58.6817 161.346 56.3375C163.69 53.9934 165.007 50.814 165.007 47.4989C165.007 44.1838 163.69 41.0044 161.346 38.6603C159.002 36.3161 155.823 34.9992 152.508 34.9992Z" fill="#F1A740"/>
</svg>
