<svg width="168" height="164" viewBox="0 0 168 164" fill="none" xmlns="http://www.w3.org/2000/svg">
<path d="M84 0.666626C73.0565 0.666626 62.2202 2.82211 52.1097 7.01C41.9992 11.1979 32.8126 17.3362 25.0744 25.0744C9.44639 40.7024 0.666656 61.8986 0.666656 84C0.666656 120.833 24.5833 152.083 57.6667 163.167C61.8333 163.833 63.1667 161.25 63.1667 159V144.917C40.0833 149.917 35.1667 133.75 35.1667 133.75C31.3333 124.083 25.9167 121.5 25.9167 121.5C18.3333 116.333 26.5 116.5 26.5 116.5C34.8333 117.083 39.25 125.083 39.25 125.083C46.5 137.75 58.75 134 63.5 132C64.25 126.583 66.4167 122.917 68.75 120.833C50.25 118.75 30.8333 111.583 30.8333 79.8333C30.8333 70.5833 34 63.1666 39.4167 57.25C38.5833 55.1666 35.6667 46.5 40.25 35.25C40.25 35.25 47.25 33 63.1667 43.75C69.75 41.9166 76.9167 41 84 41C91.0833 41 98.25 41.9166 104.833 43.75C120.75 33 127.75 35.25 127.75 35.25C132.333 46.5 129.417 55.1666 128.583 57.25C134 63.1666 137.167 70.5833 137.167 79.8333C137.167 111.667 117.667 118.667 99.0833 120.75C102.083 123.333 104.833 128.417 104.833 136.167V159C104.833 161.25 106.167 163.917 110.417 163.167C143.5 152 167.333 120.833 167.333 84C167.333 73.0565 165.178 62.2201 160.99 52.1097C156.802 41.9992 150.664 32.8126 142.926 25.0744C135.187 17.3362 126.001 11.1979 115.89 7.01C105.78 2.82211 94.9435 0.666626 84 0.666626Z" fill="black"/>
</svg>
