<svg width="200" height="200" viewBox="0 0 200 200" fill="none" xmlns="http://www.w3.org/2000/svg">
<path fill-rule="evenodd" clip-rule="evenodd" d="M60 0C44.087 0 28.8258 6.32141 17.5736 17.5736C6.32141 28.8258 0 44.087 0 60L0 140C0 155.913 6.32141 171.174 17.5736 182.426C28.8258 193.679 44.087 200 60 200H140C155.913 200 171.174 193.679 182.426 182.426C193.679 171.174 200 155.913 200 140V60C200 44.087 193.679 28.8258 182.426 17.5736C171.174 6.32141 155.913 0 140 0L60 0ZM53.3333 100C53.3333 87.6232 58.25 75.7534 67.0017 67.0017C75.7534 58.25 87.6232 53.3333 100 53.3333C112.377 53.3333 124.247 58.25 132.998 67.0017C141.75 75.7534 146.667 87.6232 146.667 100C146.667 112.377 141.75 124.247 132.998 132.998C124.247 141.75 112.377 146.667 100 146.667C87.6232 146.667 75.7534 141.75 67.0017 132.998C58.25 124.247 53.3333 112.377 53.3333 100ZM146.667 53.3333H160V40H146.667V53.3333Z" fill="black"/>
</svg>
