<svg width="150" height="150" viewBox="0 0 150 150" fill="none" xmlns="http://www.w3.org/2000/svg">
<path d="M133.333 0C137.754 0 141.993 1.75595 145.118 4.88155C148.244 8.00716 150 12.2464 150 16.6667V133.333C150 137.754 148.244 141.993 145.118 145.118C141.993 148.244 137.754 150 133.333 150H16.6667C12.2464 150 8.00716 148.244 4.88155 145.118C1.75595 141.993 0 137.754 0 133.333V16.6667C0 12.2464 1.75595 8.00716 4.88155 4.88155C8.00716 1.75595 12.2464 0 16.6667 0H133.333ZM129.167 129.167V85C129.167 77.7949 126.304 70.885 121.21 65.7903C116.115 60.6955 109.205 57.8333 102 57.8333C94.9167 57.8333 86.6667 62.1667 82.6667 68.6667V59.4167H59.4167V129.167H82.6667V88.0833C82.6667 81.6667 87.8333 76.4167 94.25 76.4167C97.3442 76.4167 100.312 77.6458 102.5 79.8338C104.688 82.0217 105.917 84.9891 105.917 88.0833V129.167H129.167ZM32.3333 46.3333C36.0464 46.3333 39.6073 44.8583 42.2328 42.2328C44.8583 39.6073 46.3333 36.0464 46.3333 32.3333C46.3333 24.5833 40.0833 18.25 32.3333 18.25C28.5982 18.25 25.016 19.7338 22.3749 22.3749C19.7338 25.016 18.25 28.5982 18.25 32.3333C18.25 40.0833 24.5833 46.3333 32.3333 46.3333ZM43.9167 129.167V59.4167H20.8333V129.167H43.9167Z" fill="black"/>
</svg>
