<svg width="200" height="200" viewBox="0 0 200 200" fill="none" xmlns="http://www.w3.org/2000/svg">
<path d="M158.333 25C162.754 25 166.993 26.7559 170.118 29.8816C173.244 33.0072 175 37.2464 175 41.6667V158.333C175 162.754 173.244 166.993 170.118 170.118C166.993 173.244 162.754 175 158.333 175H41.6667C37.2464 175 33.0072 173.244 29.8816 170.118C26.7559 166.993 25 162.754 25 158.333V41.6667C25 37.2464 26.7559 33.0072 29.8816 29.8816C33.0072 26.7559 37.2464 25 41.6667 25H158.333ZM154.167 154.167V110C154.167 102.795 151.304 95.885 146.21 90.7903C141.115 85.6955 134.205 82.8333 127 82.8333C119.917 82.8333 111.667 87.1667 107.667 93.6667V84.4167H84.4167V154.167H107.667V113.083C107.667 106.667 112.833 101.417 119.25 101.417C122.344 101.417 125.312 102.646 127.5 104.834C129.688 107.022 130.917 109.989 130.917 113.083V154.167H154.167ZM57.3333 71.3333C61.0464 71.3333 64.6073 69.8583 67.2328 67.2328C69.8583 64.6073 71.3333 61.0464 71.3333 57.3333C71.3333 49.5833 65.0833 43.25 57.3333 43.25C53.5982 43.25 50.016 44.7338 47.3749 47.3749C44.7338 50.016 43.25 53.5982 43.25 57.3333C43.25 65.0833 49.5833 71.3333 57.3333 71.3333ZM68.9167 154.167V84.4167H45.8333V154.167H68.9167Z" fill="#F1A740"/>
</svg>
